<svg width="437" height="200" viewBox="0 0 437 200" fill="none" xmlns="http://www.w3.org/2000/svg">
<g class="letters">
    <path d="M8.09091 179V85.9091H44.8182C51.8485 85.9091 57.8485 87.1667 62.8182 89.6818C67.8182 92.1667 71.6212 95.697 74.2273 100.273C76.8636 104.818 78.1818 110.167 78.1818 116.318C78.1818 122.5 76.8485 127.818 74.1818 132.273C71.5152 136.697 67.6515 140.091 62.5909 142.455C57.5606 144.818 51.4697 146 44.3182 146H19.7273V130.182H41.1364C44.8939 130.182 48.0152 129.667 50.5 128.636C52.9849 127.606 54.8333 126.061 56.0455 124C57.2879 121.939 57.9091 119.379 57.9091 116.318C57.9091 113.227 57.2879 110.621 56.0455 108.5C54.8333 106.379 52.9697 104.773 50.4545 103.682C47.9697 102.561 44.8333 102 41.0455 102H27.7727V179H8.09091ZM58.3636 136.636L81.5 179H59.7727L37.1364 136.636H58.3636ZM122.42 180.364C115.239 180.364 109.057 178.909 103.875 176C98.7235 173.061 94.7538 168.909 91.9659 163.545C89.178 158.152 87.7841 151.773 87.7841 144.409C87.7841 137.227 89.178 130.924 91.9659 125.5C94.7538 120.076 98.678 115.848 103.739 112.818C108.83 109.788 114.799 108.273 121.648 108.273C126.254 108.273 130.542 109.015 134.511 110.5C138.511 111.955 141.996 114.152 144.966 117.091C147.966 120.03 150.299 123.727 151.966 128.182C153.633 132.606 154.466 137.788 154.466 143.727V149.045H95.5114V137.045H136.239C136.239 134.258 135.633 131.788 134.42 129.636C133.208 127.485 131.527 125.803 129.375 124.591C127.254 123.348 124.784 122.727 121.966 122.727C119.027 122.727 116.42 123.409 114.148 124.773C111.905 126.106 110.148 127.909 108.875 130.182C107.602 132.424 106.951 134.924 106.92 137.682V149.091C106.92 152.545 107.557 155.53 108.83 158.045C110.133 160.561 111.966 162.5 114.33 163.864C116.693 165.227 119.496 165.909 122.739 165.909C124.89 165.909 126.86 165.606 128.648 165C130.436 164.394 131.966 163.485 133.239 162.273C134.511 161.061 135.481 159.576 136.148 157.818L154.057 159C153.148 163.303 151.284 167.061 148.466 170.273C145.678 173.455 142.072 175.939 137.648 177.727C133.254 179.485 128.178 180.364 122.42 180.364ZM225.193 129.091L207.466 130.182C207.163 128.667 206.511 127.303 205.511 126.091C204.511 124.848 203.193 123.864 201.557 123.136C199.951 122.379 198.027 122 195.784 122C192.784 122 190.254 122.636 188.193 123.909C186.133 125.152 185.102 126.818 185.102 128.909C185.102 130.576 185.769 131.985 187.102 133.136C188.436 134.288 190.723 135.212 193.966 135.909L206.602 138.455C213.39 139.848 218.451 142.091 221.784 145.182C225.117 148.273 226.784 152.333 226.784 157.364C226.784 161.939 225.436 165.955 222.739 169.409C220.072 172.864 216.405 175.561 211.739 177.5C207.102 179.409 201.754 180.364 195.693 180.364C186.451 180.364 179.087 178.439 173.602 174.591C168.148 170.712 164.951 165.439 164.011 158.773L183.057 157.773C183.633 160.591 185.027 162.742 187.239 164.227C189.451 165.682 192.284 166.409 195.739 166.409C199.133 166.409 201.86 165.758 203.92 164.455C206.011 163.121 207.072 161.409 207.102 159.318C207.072 157.561 206.33 156.121 204.875 155C203.42 153.848 201.178 152.97 198.148 152.364L186.057 149.955C179.239 148.591 174.163 146.227 170.83 142.864C167.527 139.5 165.875 135.212 165.875 130C165.875 125.515 167.087 121.652 169.511 118.409C171.966 115.167 175.405 112.667 179.83 110.909C184.284 109.152 189.496 108.273 195.466 108.273C204.284 108.273 211.223 110.136 216.284 113.864C221.375 117.591 224.345 122.667 225.193 129.091Z" fill="#021344"/>
</g>
<g class="box__general">
    <g class="box_1">
        <rect x="237" width="200" height="200" rx="20" fill="#1F50FF"/>
    </g>
    <g class="box_2">
        <rect x="237" width="200" height="200" rx="20" fill="#1F50FF"/>
    </g>
    <g class="box_3">
        <rect x="237" width="200" height="200" rx="20" fill="#1F50FF"/>
    </g>
    <g class="box_4">
        <rect x="237" width="200" height="200" rx="20" fill="#1F50FF"/>
    </g>
    <path class="letter_1" d="M269 108V180" stroke="white" stroke-width="24"/>
    <path class="letter_2" d="M269 60V84" stroke="white" stroke-width="24"/>
    <path class="letter_3" d="M317 108V180" stroke="white" stroke-width="24"/>
    <path class="letter_4" d="M281 96L353 96" stroke="white" stroke-width="24"/>
</g>
</svg>
