<svg width="24" height="24" viewBox="0 0 24 24" fill="none" xmlns="http://www.w3.org/2000/svg">
<path d="M17.0038 21.996H7.00378C5.58701 21.9969 4.21563 21.4964 3.13247 20.5832C2.04931 19.6699 1.32425 18.4029 1.08569 17.0063C0.847119 15.6098 1.11044 14.1739 1.82901 12.9529C2.54759 11.7318 3.67506 10.8045 5.01178 10.335C4.9665 9.38872 5.11379 8.44303 5.44474 7.55529C5.77569 6.66755 6.2834 5.85623 6.93713 5.17048C7.59085 4.48473 8.37698 3.93881 9.24788 3.56581C10.1188 3.19281 11.0564 3.00049 12.0038 3.00049C12.9512 3.00049 13.8888 3.19281 14.7597 3.56581C15.6306 3.93881 16.4167 4.48473 17.0704 5.17048C17.7242 5.85623 18.2319 6.66755 18.5628 7.55529C18.8938 8.44303 19.0411 9.38872 18.9958 10.335C20.3325 10.8045 21.46 11.7318 22.1785 12.9529C22.8971 14.1739 23.1604 15.6098 22.9219 17.0063C22.6833 18.4029 21.9583 19.6699 20.8751 20.5832C19.7919 21.4964 18.4206 21.9969 17.0038 21.996ZM17.0038 9.99606C17.004 9.32906 16.8708 8.66876 16.612 8.05402C16.3532 7.43929 15.974 6.88255 15.4967 6.4166C15.0195 5.95064 14.4538 5.58488 13.8331 5.34085C13.2123 5.09682 12.549 4.97945 11.8822 4.99567C11.2154 5.01188 10.5586 5.16134 9.95047 5.43525C9.34231 5.70916 8.79511 6.10198 8.34107 6.59058C7.88703 7.07919 7.53534 7.65369 7.30671 8.28028C7.07807 8.90686 6.97712 9.57286 7.00978 10.239L7.07978 11.727L5.67578 12.221C4.78629 12.5356 4.03653 13.1543 3.55888 13.9679C3.08123 14.7816 2.90639 15.7378 3.06524 16.6678C3.22409 17.5978 3.70641 18.4418 4.42705 19.0508C5.14769 19.6597 6.0603 19.9945 7.00378 19.996H17.0038C17.7401 19.9958 18.4621 19.7923 19.0902 19.408C19.7183 19.0237 20.2281 18.4734 20.5635 17.8179C20.8989 17.1624 21.0468 16.427 20.991 15.6928C20.9351 14.9585 20.6777 14.254 20.2471 13.6567C19.8165 13.0594 19.2293 12.5926 18.5503 12.3076C17.8714 12.0227 17.1269 11.9307 16.399 12.0418C15.6711 12.1529 14.988 12.4628 14.4249 12.9373C13.8618 13.4118 13.4406 14.0325 13.2078 14.731L11.3098 14.098C11.7086 12.9034 12.4731 11.8645 13.4949 11.1283C14.5168 10.3922 15.7443 9.99607 17.0038 9.99606Z" fill="#0066FF"/>
</svg>
