<svg width="80" height="80" viewBox="0 0 80 80" fill="none" xmlns="http://www.w3.org/2000/svg">
<path d="M71.25 0H8.75C3.91751 0 0 3.91751 0 8.75V71.25C0 76.0825 3.91751 80 8.75 80H71.25C76.0825 80 80 76.0825 80 71.25V8.75C80 3.91751 76.0825 0 71.25 0Z" fill="#092E20"/>
<path d="M58.2428 29.4368V50.1327C58.2428 57.2636 57.7211 60.6837 56.156 63.6405C54.7064 66.4817 52.7931 68.2784 48.8512 70.2497L40.561 66.3074C44.5032 64.4524 46.4161 62.8297 47.6335 60.3359C48.9092 57.7853 49.3153 54.8285 49.3153 47.0604V29.4368H58.2428ZM44.0402 15.6497V56.9741C39.4603 57.8436 36.0977 58.1915 32.4457 58.1915C21.5465 58.1915 15.8652 53.2641 15.8652 43.8141C15.8652 34.7123 21.8947 28.7995 31.228 28.7995C32.6772 28.7995 33.7786 28.9151 35.1123 29.2629V15.6497H44.0402ZM32.0979 35.9876C27.576 35.9876 24.967 38.7705 24.967 43.6399C24.967 48.394 27.4601 51.0026 32.04 51.0026C33.025 51.0026 33.837 50.9446 35.1123 50.7711V36.451C34.0688 36.1036 33.1993 35.9876 32.0979 35.9876ZM58.2428 15.6972V24.8569H49.3153V15.6972H58.2428Z" fill="#FFFFFD"/>
</svg>
