<svg width="80" height="80" viewBox="0 0 80 80" fill="none" xmlns="http://www.w3.org/2000/svg">
<g clip-path="url(#clip0_53_1466)">
<path d="M0.136719 0.139648L68.531 74.0289C68.531 74.0289 70.8611 75.7051 72.6429 73.7496C74.4247 71.7941 73.0541 69.8386 73.0541 69.8386L0.136719 0.139648Z" fill="#DF4F4F"/>
<path d="M21.793 7.12354L73.8768 64.3912C73.8768 64.3912 76.2069 66.0674 77.9887 64.1119C79.7705 62.1564 78.3999 60.2009 78.3999 60.2009L21.793 7.12354Z" fill="#DF4F4F"/>
<path d="M6.57812 22.0691L58.662 79.3368C58.662 79.3368 60.992 81.0129 62.7739 79.0574C64.5557 77.1019 63.185 75.1465 63.185 75.1465L6.57812 22.0691Z" fill="#DF4F4F"/>
<path d="M40.0996 13.1296L76.4875 53.1392C76.4875 53.1392 78.1154 54.3102 79.3602 52.944C80.6051 51.5778 79.6475 50.2116 79.6475 50.2116L40.0996 13.1296Z" fill="#DF4F4F"/>
<path d="M11.5918 39.3889L47.9797 79.3984C47.9797 79.3984 49.6075 80.5694 50.8524 79.2033C52.0972 77.8371 51.1397 76.4709 51.1397 76.4709L11.5918 39.3889Z" fill="#DF4F4F"/>
<path d="M58.7988 21.7896L75.291 39.9783C75.291 39.9783 76.0963 40.527 76.7121 39.8868C77.3279 39.2467 76.8542 38.6065 76.8542 38.6065L58.7988 21.7896Z" fill="#DF4F4F"/>
<path d="M20.6953 57.8264L37.1875 76.0151C37.1875 76.0151 37.9928 76.5639 38.6086 75.9237C39.2244 75.2835 38.7507 74.6434 38.7507 74.6434L20.6953 57.8264Z" fill="#DF4F4F"/>
</g>
<defs>
<clipPath id="clip0_53_1466">
<rect width="80" height="80" fill="white"/>
</clipPath>
</defs>
</svg>
