<svg width="70" height="80" viewBox="0 0 70 80" fill="none" xmlns="http://www.w3.org/2000/svg">
<path d="M35 79.8516C33.913 79.8516 32.8985 79.5581 31.9565 79.0446L22.3188 73.2492C20.8696 72.4423 21.5942 72.1488 22.029 72.0021C23.9855 71.3419 24.3478 71.1952 26.3768 70.0214C26.5942 69.8747 26.8841 69.9481 27.1014 70.0948L34.4928 74.5697C34.7826 74.7164 35.1449 74.7164 35.3623 74.5697L64.2754 57.6237C64.5652 57.477 64.7101 57.1835 64.7101 56.8168V22.9981C64.7101 22.6313 64.5652 22.3379 64.2754 22.1912L35.3623 5.31855C35.0725 5.17183 34.7101 5.17183 34.4928 5.31855L5.57971 22.1912C5.28986 22.3379 5.14493 22.7047 5.14493 22.9981V56.8168C5.14493 57.1102 5.28986 57.477 5.57971 57.6237L13.4783 62.2453C17.7536 64.4461 20.4348 61.8785 20.4348 59.311V25.9325C20.4348 25.4923 20.7971 25.0522 21.3043 25.0522H25C25.4348 25.0522 25.8696 25.419 25.8696 25.9325V59.311C25.8696 65.1063 22.7536 68.4809 17.3188 68.4809C15.6522 68.4809 14.3478 68.4809 10.6522 66.6469L3.04348 62.2453C1.15942 61.1449 0 59.0909 0 56.8901V23.0715C0 20.8707 1.15942 18.8167 3.04348 17.7163L31.9565 0.770272C33.7681 -0.256757 36.2319 -0.256757 38.0435 0.770272L66.9565 17.7163C68.8406 18.8167 70 20.8707 70 23.0715V56.8901C70 59.0909 68.8406 61.1449 66.9565 62.2453L38.0435 79.1913C37.1014 79.6315 36.0145 79.8516 35 79.8516ZM43.913 56.5967C31.2319 56.5967 28.6232 50.7279 28.6232 45.7395C28.6232 45.2993 28.9855 44.8592 29.4928 44.8592H33.2609C33.6957 44.8592 34.058 45.1526 34.058 45.5928C34.6377 49.4808 36.3043 51.3882 43.9855 51.3882C50.0725 51.3882 52.6812 49.9943 52.6812 46.6932C52.6812 44.7858 51.9565 43.392 42.4638 42.4383C34.5652 41.6314 29.6377 39.8708 29.6377 33.4885C29.6377 27.5464 34.5652 24.0252 42.8261 24.0252C52.1015 24.0252 56.6667 27.253 57.2464 34.2955C57.2464 34.5155 57.1739 34.7356 57.029 34.9557C56.8841 35.1024 56.6667 35.2491 56.4493 35.2491H52.6812C52.3188 35.2491 51.9565 34.9557 51.8841 34.5889C51.0145 30.5541 48.7681 29.2337 42.8261 29.2337C36.1594 29.2337 35.3623 31.5812 35.3623 33.3418C35.3623 35.4692 36.3043 36.1294 45.2899 37.3032C54.2029 38.4769 58.4058 40.1642 58.4058 46.4731C58.3333 52.9287 53.1159 56.5967 43.913 56.5967Z" fill="#539E43"/>
</svg>
