<svg width="80" height="80" viewBox="0 0 80 80" fill="none" xmlns="http://www.w3.org/2000/svg">
<path d="M39.661 0.0227051C19.4009 0.0227065 20.666 8.84316 20.666 8.84316L20.6886 17.9811H40.0223V20.7247H13.0093C13.0093 20.7247 0.0449219 19.2486 0.0449219 39.7714C0.0449204 60.2942 11.3606 59.5664 11.3606 59.5664H18.1138V50.0431C18.1138 50.0431 17.7498 38.683 29.2488 38.683H48.4244C48.4244 38.683 59.1979 38.8579 59.1979 28.23V10.6571C59.1979 10.6571 60.8337 0.0227051 39.661 0.0227051ZM29.0003 6.16754C30.9239 6.16754 32.4786 7.72834 32.4786 9.65945C32.4786 11.5906 30.9239 13.1513 29.0003 13.1513C27.0767 13.1513 25.5221 11.5906 25.5221 9.65945C25.5221 7.72834 27.0767 6.16754 29.0003 6.16754Z" fill="url(#paint0_linear_53_1483)"/>
<path d="M40.2362 79.7259C60.4963 79.7259 59.2311 70.9054 59.2311 70.9054L59.2085 61.7675H39.8748V59.0239H66.8878C66.8878 59.0239 79.8522 60.4999 79.8522 39.9771C79.8522 19.4544 68.5366 20.1821 68.5366 20.1821H61.7834V29.7055C61.7834 29.7055 62.1474 41.0655 50.6484 41.0655H31.4728C31.4728 41.0655 20.6992 40.8907 20.6992 51.5186V69.0914C20.6992 69.0914 19.0635 79.7259 40.2362 79.7259ZM50.8968 73.581C48.9733 73.581 47.4186 72.0202 47.4186 70.0891C47.4186 68.158 48.9733 66.5972 50.8968 66.5972C52.8204 66.5972 54.3751 68.158 54.3751 70.0891C54.3751 72.0202 52.8204 73.581 50.8968 73.581Z" fill="url(#paint1_linear_53_1483)"/>
<defs>
<linearGradient id="paint0_linear_53_1483" x1="7.71457" y1="7.19179" x2="47.4175" y2="46.3451" gradientUnits="userSpaceOnUse">
<stop stop-color="#387EB8"/>
<stop offset="1" stop-color="#366994"/>
</linearGradient>
<linearGradient id="paint1_linear_53_1483" x1="31.99" y1="32.4332" x2="74.619" y2="72.5743" gradientUnits="userSpaceOnUse">
<stop stop-color="#FFE052"/>
<stop offset="1" stop-color="#FFC331"/>
</linearGradient>
</defs>
</svg>
