<svg width="63" height="80" viewBox="0 0 63 80" fill="none" xmlns="http://www.w3.org/2000/svg">
<g clip-path="url(#clip0_57_1504)">
<path d="M9.27763 1.3941C5.73232 1.37786 1.95698 4.93544 1.99244 8.67439V35.8107V43.341V46.9698L8.46732 36.0228L2.40895 20.9926L15.158 1.43198L9.27763 1.3941ZM1.99244 49.1213L2.0038 77.7993H14.9706L1.99244 49.1204V49.1205L1.99244 49.1204V49.1213ZM61.3787 49.4471L49.7551 77.7955H54.0998C57.6451 77.8113 61.4129 74.2542 61.3774 70.5152L61.3786 49.4474H61.3787V49.4471ZM31.7154 60.7554L16.5325 77.7955L49.5469 77.7991L31.7154 60.7553V60.7554V60.7554Z" fill="#8B1E25"/>
<path d="M15.1633 1.42456L15.3375 19.1253L2.40192 20.9871L8.38548 35.845L15.4813 19.042L33.1718 12.2541L15.1633 1.42456ZM8.26431 36.3677L1.98633 46.9813L2.02419 48.3298L15.966 52.475L15.7578 77.7919H16.5378L31.7178 60.7616L49.5445 77.8032L49.7566 77.7957L61.3792 49.4492L61.3792 48.5855L31.7178 60.4965L15.9673 52.471L8.26431 36.3678V36.3677V36.3677Z" fill="#A42F38"/>
<path d="M15.1635 1.42114L2.39679 20.9915L15.343 19.1244L15.1635 1.42114ZM2.00171 48.2999V49.1256H1.99414L14.9591 77.7922L15.7647 77.7954L15.9662 52.4742L2.00171 48.2999V48.2999V48.2999Z" fill="#932630"/>
<path d="M56.2179 36.303L49.1882 18.8512L31.8633 12.1819L49.4174 1.43945L49.1855 18.8505L61.3802 22.6265L61.377 23.695L56.3391 36.303L61.3789 48.5862L49.068 53.5296L56.2179 36.303Z" fill="#C68A66"/>
<path d="M31.8868 12.1624L49.4182 1.44269L15.2188 1.43518L31.8868 12.1624V12.1624ZM49.1835 18.8441L61.3813 22.6279L49.4182 1.43506L49.1835 18.8441ZM61.376 23.6926L56.2869 36.3214L61.376 48.5865V23.6926V23.6926Z" fill="#BE785F"/>
<path d="M61.4139 1.31372L49.4183 1.43493L61.3794 22.6278L61.4139 1.31372ZM31.6219 11.9425L15.5066 18.8516L7.87305 36.1849L15.9643 52.4762L31.7149 60.5056L49.0709 53.5296L56.2491 36.2985L49.1911 18.8516L31.6219 11.9425Z" fill="#AA4042"/>
<path d="M39.5775 3.88038C39.2951 3.88547 39.0972 3.91917 39.0474 3.97129C38.948 4.07556 39.0356 4.56736 39.2368 5.0622C39.5643 5.86794 39.7038 5.97213 40.615 6.05465C41.1747 6.10532 41.7651 6.16002 41.9252 6.18341C42.0852 6.20668 42.2873 6.11535 42.372 5.97889C42.4566 5.84241 42.3992 5.36626 42.2508 4.91829C41.9976 4.15415 41.8998 4.09229 40.6075 3.94099C40.2286 3.89665 39.86 3.87527 39.5775 3.88038ZM29.5964 5.74402C29.0594 5.74402 27.3279 6.71025 27.1806 7.0925C27.0146 7.52343 28.6873 9.63795 29.195 9.63795C29.3905 9.63795 29.9856 9.34648 30.5203 8.99404C31.055 8.64158 31.4972 8.22847 31.4972 8.0698C31.4972 7.62328 29.9604 5.74402 29.5964 5.74402ZM52.4743 7.44859C51.8867 7.44859 52.4027 8.37989 53.3073 8.94859C54.3997 9.63528 54.9507 9.78512 54.9507 9.40313C54.9507 9.14393 52.8024 7.44859 52.4743 7.44859ZM41.4859 7.53189C40.6569 7.55226 39.8465 7.67584 38.487 7.91829C35.6352 8.42684 32.1512 9.53046 30.9671 10.3046C26.4794 13.2385 22.5938 17.5746 19.0624 23.5925C14.027 32.1732 11.2563 42.1966 10.3459 55.0849L10.1869 57.3046C10.2134 57.3176 10.2468 57.3306 10.2853 57.3425H22.8716C29.8519 57.3425 35.6147 57.2913 35.6775 57.2288C35.7402 57.1663 35.3266 55.7127 34.7536 54.0015C32.8961 48.4553 31.706 41.9796 31.6941 37.3803C31.6784 31.338 33.55 24.6379 36.4802 20.2516C38.0547 17.8948 40.4955 15.4777 41.3117 15.4713C41.6241 15.4689 42.3651 15.1397 42.9627 14.7365C43.5602 14.3332 44.8171 13.7685 45.7495 13.4864C48.6373 12.6128 52.5315 13.1102 56.132 14.8046C57.4043 15.4033 57.7309 15.4786 57.9041 15.2062C58.3454 14.5122 58.0854 13.9972 56.6924 12.8425C53.0122 9.79193 49.0313 8.18512 43.9168 7.67586C43.0514 7.58968 42.4225 7.53723 41.8419 7.53189C41.7209 7.52947 41.6044 7.52898 41.4859 7.53189V7.53189ZM18.5399 14.4258C17.9946 14.5264 16.1763 16.8794 16.4876 17.1607C17.1549 17.7637 19.3915 19.0915 19.5622 18.9864C19.6721 18.9188 20.0888 18.3832 20.4937 17.7971C20.8986 17.2109 21.2283 16.6297 21.2283 16.5092C21.2283 16.322 19.6129 15.0368 18.6307 14.441C18.6067 14.4264 18.5762 14.4192 18.5399 14.4259V14.4258ZM52.3986 14.8349C52.2045 14.8351 52.0375 14.8707 51.9518 14.9561C51.8178 15.0895 51.7769 15.3822 51.8609 15.6001C52.0604 16.118 53.8526 16.0224 53.8526 15.494C53.8526 15.1655 52.9807 14.8345 52.3986 14.8349ZM45.1361 15.0773C45.0351 15.0798 44.9097 15.1017 44.7574 15.1379C43.8718 15.349 43.2201 15.6856 43.2201 15.9334C43.2201 16.0418 43.4436 16.3275 43.7124 16.5698C43.9812 16.8121 44.197 17.1625 44.197 17.3425C44.197 17.7395 44.3885 17.7495 45.386 17.4031C46.263 17.0986 46.2855 16.9966 45.7949 15.8274C45.5557 15.2571 45.439 15.0724 45.1361 15.0773ZM38.896 19.8577C38.595 19.8577 37.8433 20.667 37.8433 20.994C37.8433 21.4141 39.0664 23.2667 39.3428 23.2667C39.4562 23.2667 39.7223 22.9932 39.941 22.6607C40.3186 22.0867 40.3051 21.9996 39.6911 20.9561C39.3355 20.3516 38.9805 19.8577 38.896 19.8577ZM10.149 27.888C9.8204 27.888 8.77073 30.4112 8.77073 31.1985C8.77073 31.492 11.4578 32.6925 12.2164 32.7364C12.4921 32.7524 12.773 32.2753 13.1479 31.1379C13.5835 29.8162 13.6183 29.4619 13.3599 29.2288C12.9546 28.8632 10.6222 27.888 10.149 27.888ZM34.8444 27.9864C34.7735 28.0005 34.7162 28.0536 34.6627 28.1379C34.5358 28.3378 34.43 28.6255 34.4279 28.7819C34.426 28.9383 34.3634 29.235 34.284 29.441C34.1907 29.6834 34.5138 30.1619 35.2004 30.797C36.3886 31.8961 36.5121 31.9417 36.7225 31.3955C37.0938 30.4317 36.8538 29.6741 35.8819 28.7288C35.3727 28.2336 35.1006 28.0134 34.9202 27.9864C34.8931 27.9823 34.8681 27.9818 34.8444 27.9864ZM33.557 37.4258C33.2812 37.4149 33.2066 37.6284 33.2087 38.0546C33.2155 39.4171 33.459 39.7595 34.8747 40.3879C36.7336 41.2131 36.8888 41.2027 36.7225 40.244C36.4977 38.9479 36.4566 38.8922 35.1095 38.1228C34.3081 37.665 33.8329 37.4367 33.557 37.4258ZM5.28717 44.4409C4.87659 44.4409 3.7412 48.1136 3.96947 48.7061C4.09263 49.0258 5.00334 49.1786 7.32429 49.2667L8.44509 49.3046L8.8919 47.35C9.16107 46.1762 9.25417 45.3244 9.11909 45.2061C8.90003 45.0143 6.03198 44.4409 5.28717 44.4409ZM35.3518 49.3803C35.2789 49.383 35.2318 49.3944 35.2155 49.4106C35.1349 49.4909 35.2583 50.1542 35.4881 50.8803C35.8416 51.9971 36.0091 52.2119 36.5711 52.297C37.5055 52.4386 40.0471 52.495 40.0471 52.3728C40.0471 51.8655 39.0095 50.0554 38.6612 49.9561C37.6249 49.6607 35.8623 49.3623 35.3518 49.3803ZM53.1559 61.2894C52.5752 61.2894 51.9741 61.3098 51.4974 61.3576C50.0948 61.4979 49.6231 61.6635 49.0135 62.2061C48.3469 62.7993 48.2507 63.0518 48.1729 64.4258C48.1021 65.6743 48.1782 66.1335 48.5818 66.7742C49.2064 67.7659 49.926 68.0498 51.8533 68.0546C53.6833 68.0589 54.0415 68.2462 53.9359 69.1682L53.8526 69.8728L51.1036 69.9409L48.3546 70.0091V71.2212V72.4257H51.4217C53.6847 72.4257 54.6716 72.3346 55.2006 72.0621C56.2085 71.5429 56.6621 70.5244 56.6621 68.7667C56.6621 67.389 56.5938 67.2026 55.8291 66.4409C54.9874 65.6025 54.8802 65.5746 52.2623 65.5091C51.2006 65.4825 50.8007 65.2401 50.8007 64.6227C50.8007 63.9364 51.7233 63.6682 54.1101 63.6682H56.1699V62.6V61.5243L54.7007 61.3576C54.2965 61.3109 53.7365 61.2888 53.1559 61.2894ZM34.6703 61.4485L33.3904 61.5243L32.103 61.6L32.0349 66.7061C31.9985 69.5137 32.0297 71.9443 32.0955 72.1152C32.1705 72.31 32.672 72.4257 33.4434 72.4257H34.6703V66.9409V61.4485ZM7.30158 61.4788V66.9561V72.4257H8.63442H9.96726L10.043 71.0318C10.0863 70.2038 10.2217 69.6303 10.3838 69.6303C10.5344 69.6303 11.178 70.2621 11.8075 71.0318L12.951 72.4257H14.405C15.204 72.4257 15.859 72.3665 15.859 72.2894C15.859 72.2123 15.3581 71.5116 14.7534 70.7288C14.1486 69.9459 13.6553 69.2247 13.6553 69.1303C13.6553 69.0359 14.1486 68.5019 14.7534 67.9409L15.8439 66.9258C15.8478 66.9127 15.8552 66.9012 15.859 66.8879V65.0243C15.859 63.1953 15.8284 63.1038 15.026 62.3045L14.193 61.4788H10.7473H7.30158V61.4788ZM23.9469 61.4788C19.8804 61.4873 19.7667 61.6684 19.7667 67.9106V72.4257H20.9859C22.2006 72.4257 22.209 72.4233 22.2127 71.6379C22.2187 70.3742 22.4491 70.2066 24.0605 70.2894L25.507 70.3576L25.5827 71.4106L25.6584 72.4561L26.9231 72.3803L28.1954 72.3045L28.2711 68.2894C28.3885 61.9301 28.0954 61.4701 23.9469 61.4788ZM38.5779 61.4788V66.9561V72.4409L42.1826 72.3727L45.7874 72.3045V71.0924V69.8728L43.5912 69.7515L41.3875 69.6303L41.3193 65.5545L41.2587 61.4788H39.9183H38.5779ZM11.7848 63.9106C12.1664 63.9157 12.5378 63.9678 12.7844 64.0621C13.3305 64.2709 13.3305 66.4746 12.7844 66.6833C12.1267 66.9347 10.5938 66.8466 10.2853 66.5394C10.1241 66.3788 9.98998 65.8547 9.98998 65.3727C9.98998 64.8909 10.1241 64.3667 10.2853 64.2061C10.4781 64.0141 11.1486 63.9022 11.7848 63.9106ZM23.9394 63.9181C24.5388 63.9181 25.1474 64.0213 25.3328 64.206C25.4941 64.3666 25.6281 65.0536 25.6281 65.7363C25.6281 66.419 25.4941 67.106 25.3328 67.2666C24.8894 67.7082 23.0513 67.6337 22.5687 67.153C22.0721 66.6584 22.1871 64.4712 22.7277 64.1302C22.9149 64.0121 23.2792 63.9456 23.6819 63.9257C23.7658 63.9216 23.8537 63.9182 23.9394 63.9182V63.9181Z" fill="#F2F2F2"/>
</g>
<defs>
<clipPath id="clip0_57_1504">
<rect width="63" height="80" fill="white"/>
</clipPath>
</defs>
</svg>
