<svg width="90" height="80" viewBox="0 0 90 80" fill="none" xmlns="http://www.w3.org/2000/svg">
<path d="M73.9981 25.903C73.0644 25.5823 72.097 25.2788 71.1009 24.9918C71.2646 24.325 71.4149 23.6667 71.5485 23.0196C73.7416 12.3947 72.3076 3.83517 67.4112 1.01701C62.7161 -1.68523 55.0376 1.13229 47.2827 7.86799C46.5369 8.51569 45.7891 9.20145 45.0417 9.92014C44.5436 9.44463 44.0463 8.98512 43.5504 8.54559C35.423 1.34334 27.2766 -1.69178 22.3849 1.13453C17.6943 3.84461 16.3052 11.8914 18.2793 21.9607C18.47 22.9333 18.6928 23.9265 18.9448 24.9364C17.7918 25.263 16.6788 25.6112 15.6138 25.9817C6.08531 29.2973 0 34.4936 0 39.8835C0 45.4503 6.53259 51.0338 16.4572 54.4194C17.2404 54.6866 18.0531 54.9392 18.8906 55.1791C18.6188 56.2712 18.3823 57.3415 18.1838 58.3854C16.3015 68.28 17.7715 76.1367 22.4496 78.8296C27.2817 81.6107 35.3913 78.7521 43.288 71.8629C43.9121 71.3183 44.5385 70.7408 45.166 70.1355C45.9793 70.9172 46.7913 71.657 47.5991 72.3509C55.2479 78.9201 62.8024 81.5728 67.4762 78.8723C72.3035 76.0833 73.8723 67.6433 71.8355 57.3748C71.68 56.5905 71.499 55.7893 71.2957 54.9739C71.8652 54.8059 72.4243 54.6324 72.9694 54.452C83.287 51.0402 90 45.5246 90 39.8835C90 34.4741 83.7184 29.2427 73.9981 25.903ZM71.7602 50.8097C71.2681 50.9723 70.7632 51.1294 70.2486 51.2818C69.1096 47.6829 67.5723 43.856 65.6911 39.9022C67.4863 36.0426 68.9641 32.2646 70.0713 28.6891C70.9919 28.9549 71.8855 29.2354 72.7466 29.5313C81.075 32.3928 86.1552 36.6236 86.1552 39.8835C86.1552 43.3559 80.6687 47.8636 71.7602 50.8097ZM68.0638 58.12C68.9645 62.6606 69.0931 66.7659 68.4965 69.9751C67.9605 72.8588 66.8825 74.7815 65.5497 75.5515C62.7133 77.19 56.6479 75.0601 50.1065 69.442C49.3566 68.798 48.6013 68.1104 47.8435 67.3826C50.3795 64.6144 52.914 61.3964 55.3876 57.8225C59.7384 57.4371 63.849 56.8072 67.5767 55.9471C67.7602 56.6863 67.9233 57.4112 68.0638 58.12ZM30.683 75.2683C27.9119 76.2451 25.7049 76.273 24.3707 75.5053C21.5318 73.8711 20.3517 67.5629 21.9615 59.1011C22.1459 58.132 22.3654 57.1365 22.6183 56.119C26.3051 56.9327 30.3855 57.5182 34.7468 57.8711C37.2371 61.3683 39.8448 64.5828 42.4727 67.3974C41.8986 67.9506 41.3266 68.4773 40.7579 68.9736C37.2661 72.0199 33.7669 74.1812 30.683 75.2683ZM17.7007 50.7884C13.3122 49.2914 9.68802 47.3457 7.20382 45.2226C4.97161 43.3147 3.84461 41.4205 3.84461 39.8835C3.84461 36.6127 8.73051 32.4408 16.8793 29.6052C17.8681 29.2611 18.9031 28.9369 19.9773 28.6323C21.1035 32.2886 22.5808 36.1113 24.3637 39.9769C22.5578 43.8999 21.0594 47.7835 19.9222 51.4826C19.1564 51.263 18.4145 51.0318 17.7007 50.7884ZM22.0525 21.2238C20.3611 12.5966 21.4844 6.08862 24.3111 4.45553C27.3221 2.71581 33.9801 5.19629 40.9974 11.4151C41.446 11.8126 41.8963 12.2286 42.3479 12.659C39.733 15.4613 37.1491 18.6517 34.681 22.1283C30.4482 22.5198 26.3964 23.1488 22.6712 23.9911C22.437 23.0508 22.2295 22.127 22.0525 21.2238ZM60.8744 30.7912C59.9839 29.256 59.0696 27.7571 58.1376 26.2991C61.0091 26.6614 63.7604 27.1423 66.3441 27.7309C65.5684 30.212 64.6016 32.8061 63.4635 35.4655C62.6472 33.9186 61.7837 32.3589 60.8744 30.7912ZM45.0429 15.4014C46.8163 17.3189 48.5923 19.4598 50.3391 21.7826C48.5788 21.6996 46.7968 21.6564 45 21.6564C43.2202 21.6564 41.4513 21.6987 39.7019 21.7802C41.4505 19.479 43.2418 17.3409 45.0429 15.4014ZM29.11 30.8178C28.2205 32.3573 27.373 33.9085 26.5695 35.4626C25.4498 32.8125 24.492 30.2065 23.7096 27.6902C26.2774 27.1167 29.0157 26.6478 31.869 26.2924C30.9238 27.7638 30.002 29.2738 29.11 30.8175V30.8178ZM31.9512 53.7484C29.0032 53.4201 26.2237 52.9753 23.6566 52.4177C24.4515 49.8564 25.4304 47.1948 26.5738 44.4876C27.3794 46.0406 28.2302 47.5924 29.1253 49.1353H29.1254C30.0371 50.7072 30.9816 52.2469 31.9512 53.7484ZM45.1493 64.6362C43.327 62.6739 41.5094 60.5033 39.7343 58.1684C41.4575 58.2359 43.2144 58.2705 45 58.2705C46.8344 58.2705 48.6479 58.2292 50.4328 58.1499C48.6802 60.5268 46.9107 62.7008 45.1493 64.6362ZM63.5002 44.3496C64.7032 47.0861 65.7172 49.7338 66.5224 52.2514C63.9129 52.8455 61.0955 53.324 58.127 53.6796C59.0613 52.202 59.9836 50.6773 60.8898 49.109C61.8066 47.5222 62.6771 45.9331 63.5002 44.3496ZM57.5594 47.1919C56.1526 49.6265 54.7082 51.9506 53.2419 54.1444C50.5712 54.335 47.8121 54.4332 45 54.4332C42.1992 54.4332 39.4749 54.3464 36.8515 54.1764C35.3261 51.9538 33.8503 49.6228 32.4524 47.2129H32.4527C31.0585 44.8095 29.7753 42.3857 28.6126 39.9756C29.775 37.5599 31.0549 35.1334 32.4411 32.7343L32.4407 32.7348C33.8306 30.3293 35.2934 28.0097 36.8047 25.801C39.4813 25.5991 42.226 25.4937 44.9998 25.4937H45C47.7863 25.4937 50.5345 25.5999 53.2103 25.8036C54.6986 27.9961 56.1514 30.3082 57.5468 32.714C58.958 35.1469 60.2543 37.5572 61.4266 39.9211C60.2578 42.3256 58.9644 44.7602 57.5594 47.1919ZM65.4907 4.34138C68.5045 6.07598 69.6765 13.0717 67.783 22.2451C67.6622 22.8305 67.5262 23.4267 67.3785 24.0309C63.6446 23.1711 59.5899 22.5312 55.3448 22.1337C52.8718 18.6189 50.3091 15.4236 47.7368 12.6572C48.4284 11.9932 49.119 11.3601 49.8068 10.7626C56.4512 4.99147 62.6613 2.71293 65.4907 4.34138ZM45 31.8625C49.4385 31.8625 53.0367 35.4535 53.0367 39.8835C53.0367 44.3133 49.4385 47.9045 45 47.9045C40.5615 47.9045 36.9633 44.3133 36.9633 39.8835C36.9633 35.4535 40.5615 31.8625 45 31.8625Z" fill="#00D8FF"/>
</svg>
